<svg xmlns="http://www.w3.org/2000/svg" width="90" height="55" viewBox="0 0 60 37">     <defs>         <linearGradient id="3yaqq0t7za" x1="50%" x2="50%" y1="0%" y2="100%">             <stop offset="0%" stop-color="#C2DEDF"></stop>             <stop offset="100%" stop-color="#8FBABC"></stop>         </linearGradient>     </defs>     <g fill="none" transform="translate(15.6 8.167)">         <path fill="#3F556B" d="M26.1 7.52c-1.489 0-2.7 1.191-2.7 2.655v5.309c0 .488-.403.884-.9.884H6.3c-.497 0-.9-.396-.9-.884v-5.309C5.4 8.71 4.189 7.52 2.7 7.52S0 8.71 0 10.175c0 1.153.753 2.134 1.8 2.5V20.791c0 .976.807 1.77 1.8 1.77h21.6c.993 0 1.8-.794 1.8-1.77v-8.118c1.047-.365 1.8-1.346 1.8-2.5 0-1.463-1.211-2.653-2.7-2.653z"></path>         <path fill="url(#3yaqq0t7za)" d="M23.4 12.387V2.212C23.4.992 22.31 0 20.97 0H7.83C6.49 0 5.4.992 5.4 2.212v10.175h18z"></path>         <circle cx="11.7" cy="4.424" r="1" fill="#5B9295"></circle>         <circle cx="17.1" cy="4.424" r="1" fill="#5B9295"></circle>         <circle cx="11.7" cy="8.405" r="1" fill="#5B9295"></circle>         <circle cx="17.1" cy="8.405" r="1" fill="#5B9295"></circle>         <path fill="#5B9295" d="M23.4 12.387h-18v3.097c0 .488.403.884.9.884h16.2c.497 0 .9-.396.9-.884v-3.097z"></path>         <path fill="#35495C" d="M22.5 16.368H6.3c-.497 0-.9-.396-.9-.884v7.078h.9v-4.424c0-.489.403-.885.9-.885h14.4c.497 0 .9.396.9.885v4.424h.9v-7.078c0 .488-.403.884-.9.884zM5.389 10.396C5.274 11.758 4.115 12.83 2.7 12.83c-.317 0-.618-.059-.9-.158v1.043h.9c1.491 0 2.7-1.63 2.7-3.097 0-.074-.005-.148-.011-.22zM23.411 10.396c.115 1.362 1.274 2.433 2.689 2.433.317 0 .618-.059.9-.158v1.043h-.9c-1.491 0-2.7-1.63-2.7-3.097 0-.074.005-.148.011-.22z"></path>         <path fill="#407578" d="M23.4 12.387c-.497 0-.9.396-.9.885v1.77c0 .243-.201.442-.45.442H5.4c0 .488.403.884.9.884h16.2c.497 0 .9-.396.9-.885v-3.096z"></path>         <path fill="#35495C" d="M20.049 23.493c.11.218.404.396.651.396h1.35c.247 0 .45-.2.45-.442v-.885h-2.925l.474.931zM6.3 22.562v.885c0 .243.203.442.45.442H8.1c.248 0 .54-.178.651-.396l.474-.931H6.3z"></path></g> </svg>
