<svg xmlns="http://www.w3.org/2000/svg" width="90" height="54" viewBox="0 0 60 36">     <defs>         <linearGradient id="jnbmfb6gva" x1="50%" x2="50%" y1="0%" y2="100%">             <stop offset="0%" stop-color="#94C4C7"></stop>             <stop offset="100%" stop-color="#5B9295"></stop>         </linearGradient>         <linearGradient id="exsu2yk7ub" x1="52.477%" x2="48.242%" y1="100%" y2="0%">             <stop offset="0%" stop-color="#B67F39"></stop>             <stop offset="100%" stop-color="#985A2A"></stop>         </linearGradient>         <linearGradient id="t9b0hhoric" x1="50%" x2="50%" y1="100%" y2="0%">             <stop offset="0%" stop-color="#B67F39"></stop>             <stop offset="100%" stop-color="#985A2A"></stop>         </linearGradient>         <linearGradient id="6l52r2oo7d" x1="15.73%" x2="54.532%" y1="0%" y2="100%">             <stop offset="0%" stop-color="#B67F39"></stop>             <stop offset="100%" stop-color="#985A2A"></stop>         </linearGradient>     </defs>     <g fill="none" fill-rule="evenodd">         <g fill-rule="nonzero">             <path fill="url(#jnbmfb6gva)" d="M16.8 4.8H0V2.513C0 1.127 1.528 0 3.406 0h9.988C15.272 0 16.8 1.127 16.8 2.513V4.8z" transform="translate(21.6 18)"></path>             <path fill="#4D3C3B" fill-opacity=".2" d="M0 2.4L16.8 2.4 16.8 4.8 0 4.8z" transform="translate(21.6 18)"></path>         </g>         <path fill="url(#exsu2yk7ub)" d="M23.4 22.8H25.2V32.4H23.4zM34.8 22.8H36.599999999999994V32.4H34.8z"></path>         <path fill="url(#t9b0hhoric)" d="M25.2 25.2H34.8V26.4H25.2z"></path>         <path fill="url(#6l52r2oo7d)" fill-rule="nonzero" d="M36.24 3.6H23.76c-.53 0-.96.368-.96.823v1.234c0 .455.43.823.96.823H24c.398 0 .72.276.72.617V18H35.28V7.097c0-.34.322-.617.72-.617h.24c.53 0 .96-.368.96-.823V4.423c0-.455-.43-.823-.96-.823zm-2.4 13.577c-.265 0-.48-.184-.48-.411V7.714c0-.227.215-.411.48-.411s.48.184.48.411v9.052c0 .227-.215.411-.48.411zm-1.92 0c-.265 0-.48-.184-.48-.411V7.714c0-.227.215-.411.48-.411s.48.184.48.411v9.052c0 .227-.215.411-.48.411zm-1.92 0c-.265 0-.48-.184-.48-.411V7.714c0-.227.215-.411.48-.411s.48.184.48.411v9.052c0 .227-.215.411-.48.411zm-1.92 0c-.265 0-.48-.184-.48-.411V7.714c0-.227.215-.411.48-.411s.48.184.48.411v9.052c0 .227-.215.411-.48.411zm-1.92 0c-.265 0-.48-.184-.48-.411V7.714c0-.227.215-.411.48-.411s.48.184.48.411v9.052c0 .227-.215.411-.48.411z"></path>     </g> </svg>
