<svg xmlns="http://www.w3.org/2000/svg" width="90" height="54" viewBox="0 0 60 36">     <defs>         <linearGradient id="loxhbji5ma" x1="76.83%" x2="62.576%" y1="336.071%" y2="10.887%">             <stop offset="0%" stop-color="#B67F39"></stop>             <stop offset="100%" stop-color="#823B22"></stop>         </linearGradient>         <linearGradient id="1jiy88im9b" x1="51.031%" x2="49.269%" y1="100%" y2="0%">             <stop offset="0%" stop-color="#B67F39"></stop>             <stop offset="100%" stop-color="#985A2A"></stop>         </linearGradient>         <linearGradient id="xxlyqlftfc" x1="0%" x2="100%" y1="43.092%" y2="56.908%">             <stop offset="0%" stop-color="#FBDB7B"></stop>             <stop offset="100%" stop-color="#F5B445"></stop>         </linearGradient>         <linearGradient id="dzsfq0xpcd" x1="50%" x2="50%" y1="0%" y2="100%">             <stop offset="0%" stop-color="#D9E3EA"></stop>             <stop offset="100%" stop-color="#B1C3D0"></stop>         </linearGradient>         <linearGradient id="nfznbpt6se" x1="50%" x2="50%" y1="0%" y2="100%">             <stop offset="0%" stop-color="#D9E3EA"></stop>             <stop offset="100%" stop-color="#B1C3D0"></stop>         </linearGradient>         <linearGradient id="eodf9u02wf" x1="120.454%" x2="0%" y1="54.763%" y2="45.237%">             <stop offset="0%" stop-color="#B67F39"></stop>             <stop offset="100%" stop-color="#985A2A"></stop>         </linearGradient>     </defs>     <g fill="none">         <path fill="url(#loxhbji5ma)" d="M30.547 7.636L30.483 6.545 27.731 6.545 27.731 9.818 30.675 9.818z" transform="translate(13.2 7.2)"></path>         <path fill="url(#1jiy88im9b)" d="M30.483 6.545l.064 1.091.928 15.82c.017.299.276.544.575.544.3 0 .544-.245.544-.545V6.546h-2.111z" transform="translate(13.2 7.2)"></path>         <path fill="url(#xxlyqlftfc)" d="M7.069 4.364v7.132c0 .302.243.548.543.548.301 0 .544-.246.544-.549 0-.303.244-.549.544-.549.3 0 .544.246.544.55 0 .302.243.548.543.548.301 0 .544-.246.544-.549 0-.303.244-.549.544-.549.3 0 .544.246.544.55 0 .302.243.548.543.548.301 0 .544-.246.544-.549 0-.303.244-.549.544-.549.3 0 .544.246.544.55 0 .302.243.548.543.548.301 0 .544-.246.544-.549 0-.303.244-.549.544-.549.3 0 .544.246.544.55 0 .302.243.548.543.548.301 0 .544-.246.544-.549 0-.303.244-.549.544-.549.3 0 .544.246.544.55 0 .302.243.548.544.548.3 0 .543-.246.543-.549 0-.303.244-.549.544-.549.3 0 .544.246.544.55 0 .302.243.548.544.548.3 0 .543-.246.543-.549 0-.303.244-.549.544-.549.3 0 .544.246.544.55 0 .302.243.548.543.548.301 0 .544-.246.544-.549 0-.303.244-.549.544-.549.3 0 .544.246.544.55 0 .302.243.548.543.548.301 0 .544-.246.544-.549 0-.303.244-.549.544-.549.3 0 .544.246.544.55 0 .302.243.548.544.548.3 0 .543-.246.543-.549V4.364H7.07z" transform="translate(13.2 7.2)"></path>         <path fill="url(#dzsfq0xpcd)" d="M20.663.545V0h-3.807v3.818c0 .301.244.546.544.546h2.719c.3 0 .544-.245.544-.546.9 0 1.63-.732 1.63-1.636 0-.904-.73-1.637-1.63-1.637zm0 2.678V1.14c.655 0 1.038.385 1.038 1.042s-.383 1.041-1.038 1.041z" transform="translate(13.2 7.2)"></path>         <path fill="url(#nfznbpt6se)" d="M7.612 2.727L8.156 3.818 8.7 3.818 9.244 4.364 13.594 4.364 14.137 3.818 14.681 3.818 15.225 2.727z" transform="translate(13.2 7.2)"></path>         <path fill="#8EADBE" d="M18.956 3.818h-2.1c0 .268.277.546.544.546h2.78c.266 0 .483-.217.483-.485V0h-.242c-.534 0-.967.434-.967.97v2.348c0 .276-.223.5-.498.5zM12.869 2.727L12.506 3.818 11.691 3.818 11.419 4.364 13.594 4.364 14.137 3.818 14.681 3.818 15.225 2.727z" transform="translate(13.2 7.2)"></path>         <path fill="url(#loxhbji5ma)" d="M4.253 7.636L4.317 6.545 7.069 6.545 7.069 9.818 4.125 9.818z" transform="translate(13.2 7.2)"></path>         <path fill="url(#1jiy88im9b)" d="M4.317 6.545l-.064 1.091-.928 15.82c-.017.299-.276.544-.575.544-.3 0-.544-.245-.544-.545V6.546h2.111z" transform="translate(13.2 7.2)"></path>         <g fill="url(#eodf9u02wf)" transform="translate(13.2 7.2) translate(0 4.364)">             <path d="M7.069 0H.544C.244 0 0 .245 0 .545v1.091c0 .3.245.546.544.546h6.525V0zM34.256 0h-6.525v2.182h6.525c.3 0 .544-.246.544-.546V.546c0-.3-.245-.546-.544-.546z"></path>         </g>     </g> </svg>
