<svg width="90px" height="54px" viewBox="0 0 60 36" version="1.1" xmlns="http://www.w3.org/2000/svg" xmlns:xlink="http://www.w3.org/1999/xlink">     <title>Icon/Item/Bed/Double</title>     <defs>         <linearGradient x1="120.453547%" y1="55.5456764%" x2="0%" y2="44.4543236%" id="linearGradient-1">             <stop stop-color="#B67F39" offset="0%"></stop>             <stop stop-color="#985A2A" offset="100%"></stop>         </linearGradient>         <linearGradient x1="50%" y1="0%" x2="50%" y2="100%" id="linearGradient-2">             <stop stop-color="#F2F4F5" offset="0%"></stop>             <stop stop-color="#E1E5E8" offset="100%"></stop>         </linearGradient>         <linearGradient x1="49.370712%" y1="50%" x2="50%" y2="50.8311039%" id="linearGradient-3">             <stop stop-color="#FCDBD9" offset="0%"></stop>             <stop stop-color="#F5C9C9" offset="100%"></stop>         </linearGradient>         <linearGradient x1="48.1201758%" y1="-207.672776%" x2="48.1201758%" y2="100%" id="linearGradient-4">             <stop stop-color="#F1C4C1" offset="0%"></stop>             <stop stop-color="#DF928E" offset="100%"></stop>         </linearGradient>         <linearGradient x1="51.5127909%" y1="0%" x2="51.5127909%" y2="100%" id="linearGradient-5">             <stop stop-color="#B67F39" offset="0%"></stop>             <stop stop-color="#985A2A" offset="100%"></stop>         </linearGradient>     </defs>     <g id="Icon/Item/Bed/Double" stroke="none" stroke-width="1" fill="none" fill-rule="evenodd">         <g id="bed" transform="translate(13.000000, 14.400000)" fill-rule="nonzero">             <path d="M32.6,10.8 L32.6,1.2 C32.6,0 31.4,0 30.2,0 L2.6,0 C1.29045619,0 0.2,0.139620503 0.2,1.2 L0.171153846,10.8 L32.6,10.8 Z" id="Shape" fill="url(#linearGradient-1)"></path>             <path d="M1.4,15 C1.4,15.32985 1.6026125,15.6 1.85,15.6 L4.55,15.6 C4.7973875,15.6 5,15.32985 5,15 L5,13.2 L1.4,13.2 L1.4,15 Z" id="Shape" fill="#73371B"></path>             <path d="M27.8,15 C27.8,15.32985 28.0026125,15.6 28.25,15.6 L30.95,15.6 C31.1973875,15.6 31.4,15.32985 31.4,15 L31.4,13.2 L27.8,13.2 L27.8,15 Z" id="Shape" fill="#73371B"></path>         </g>         <path d="M26.2125,11.8846154 C26.0717868,11.8846154 25.942559,11.9335945 25.8409698,12.0154734 C25.5153067,12.2777823 25.1442952,12.4774038 24.7260829,12.4774038 L19.3999527,12.4774038 C18.9817404,12.4774038 18.610729,12.2777823 18.2850658,12.0154734 C18.1834026,11.9335945 18.0541747,11.8846154 17.9134615,11.8846154 C17.5860941,11.8846154 17.3206731,12.1500364 17.3206731,12.4774038 C17.3206731,12.618117 17.3696522,12.7473449 17.4515311,12.8490081 C17.71384,13.1746713 17.9134615,13.5456828 17.9134615,13.963895 L17.9134615,17.2197115 L26.2125,17.2197115 L26.2125,13.9638209 C26.2125,13.5456087 26.4120474,13.1745972 26.6744304,12.848934 C26.7563093,12.7472708 26.8052885,12.6180429 26.8052885,12.4773297 C26.8052885,12.1500364 26.5398674,11.8846154 26.2125,11.8846154 Z" id="Shape" fill="url(#linearGradient-2)" fill-rule="nonzero"></path>         <path d="M41.625,11.8846154 C41.4842868,11.8846154 41.355059,11.9335945 41.2534698,12.0154734 C40.9278067,12.2777823 40.5567952,12.4774038 40.1385829,12.4774038 L34.8124527,12.4774038 C34.3942404,12.4774038 34.023229,12.2777823 33.6975658,12.0154734 C33.5959026,11.9335945 33.4666747,11.8846154 33.3259615,11.8846154 C32.9985941,11.8846154 32.7331731,12.1500364 32.7331731,12.4774038 C32.7331731,12.618117 32.7821522,12.7473449 32.8640311,12.8490081 C33.12634,13.1746713 33.3259615,13.5456828 33.3259615,13.963895 L33.3259615,17.2197115 L41.625,17.2197115 L41.625,13.9638209 C41.625,13.5456087 41.8245474,13.1745972 42.0869304,12.848934 C42.1688093,12.7472708 42.2177885,12.6180429 42.2177885,12.4773297 C42.2177885,12.1500364 41.9523674,11.8846154 41.625,11.8846154 Z" id="Shape" fill="url(#linearGradient-2)" fill-rule="nonzero"></path>         <path d="M41.625,12.4774038 C41.2067877,12.4774038 41.0322115,13.2447685 41.0322115,13.6629808 L41.0322115,15.4413462 C41.0322115,16.0961551 40.5014436,16.6269231 39.8466346,16.6269231 L33.91875,16.6269231 C33.5913826,16.6269231 33.3259615,16.8923441 33.3259615,17.2197115 L41.625,17.2197115 L41.625,13.963895 C41.625,13.5456828 41.8245474,13.1747454 42.0868563,12.8490081 C42.1687352,12.7473449 42.1819989,12.4774038 41.625,12.4774038 Z" id="Shape" fill="#D0D7DA" fill-rule="nonzero"></path>         <path d="M26.2125,12.4774038 C25.7942877,12.4774038 25.6197115,13.2447685 25.6197115,13.6629808 L25.6197115,15.4413462 C25.6197115,16.0961551 25.0889436,16.6269231 24.4341346,16.6269231 L18.50625,16.6269231 C18.1788826,16.6269231 17.9134615,16.8923441 17.9134615,17.2197115 L26.2125,17.2197115 L26.2125,13.963895 C26.2125,13.5456828 26.4120474,13.1747454 26.6743563,12.8490081 C26.7562352,12.7473449 26.7694989,12.4774038 26.2125,12.4774038 Z" id="Shape" fill="#D0D7DA" fill-rule="nonzero"></path>         <path d="M15.0128904,17.3366753 C15.421484,17.0098601 16.0553374,16.8309683 16.9144505,16.8 L41.9087142,16.8 C42.7671901,16.8223416 43.3970233,17.0012334 43.798214,17.3366753 C44.1994047,17.6721172 44.4,18.3218429 44.4,19.2858524 L44.4,20.4 L14.4,20.4 L14.4,19.2012655 C14.4,18.2850206 14.6042968,17.6634905 15.0128904,17.3366753 Z" id="Rectangle" fill="url(#linearGradient-3)"></path>         <rect id="Rectangle-2" fill="url(#linearGradient-4)" x="14.4" y="19.2" width="30" height="1.2"></rect>         <path d="M45.7125,20.4 L14.175,20.4 L13.0875,20.4 C12.4869281,20.4 12,20.75815 12,21.2 L12,26.8 C12,27.2418 12.4869281,27.6 13.0875,27.6 L45.7125,27.6 C46.3130719,27.6 46.8,27.2418 46.8,26.8 L46.8,21.2 C46.8,20.75815 46.3130719,20.4 45.7125,20.4 Z" id="Shape" fill="url(#linearGradient-5)" fill-rule="nonzero"></path>     </g> </svg>
