<svg xmlns="http://www.w3.org/2000/svg" xmlns:xlink="http://www.w3.org/1999/xlink" width="90" height="54" viewBox="0 0 60 36">     <defs>         <linearGradient id="g0ou1g85nb" x1="50%" x2="50%" y1=".793%" y2="100%">             <stop offset="0%" stop-color="#F1C4C1"></stop>             <stop offset="100%" stop-color="#DF928E"></stop>         </linearGradient>         <linearGradient id="osof1f6w1d" x1="49.371%" x2="50%" y1="50%" y2="58.376%">             <stop offset="0%" stop-color="#FCDBD9"></stop>             <stop offset="100%" stop-color="#F5C9C9"></stop>         </linearGradient>         <linearGradient id="o6a9k7r4ge" x1="49.371%" x2="50%" y1="50%" y2="53.195%">             <stop offset="0%" stop-color="#FCDBD9"></stop>             <stop offset="100%" stop-color="#F5C9C9"></stop>         </linearGradient>         <path id="0fi74rg5ga" d="M1.091 0H27.71C28.31 0 28.8.489 28.8 1.091v17.017c0 .603-.489 1.092-1.091 1.092H1.09C.49 19.2 0 18.711 0 18.108V1.091C0 .49.489 0 1.091 0z"></path>     </defs>     <g fill="none" fill-rule="evenodd">         <g transform="translate(13.2 12) translate(2.4)">             <mask id="6psrx1fafc" fill="#fff">                 <use xlink:href="#0fi74rg5ga"></use>             </mask>             <use fill="url(#g0ou1g85nb)" xlink:href="#0fi74rg5ga"></use>             <path fill="#A35753" d="M18 0L28.8 0 28.8 19.2 18 19.2z" mask="url(#6psrx1fafc)" opacity=".5"></path>         </g>         <path fill="#A35753" d="M2.4 0L20.4 0 18.569 6 2.4 6z" opacity=".3" transform="translate(13.2 12)"></path>         <path fill="#006090" d="M20.4 0L31.2 0 31.2 6 22.805 6z" opacity=".15" transform="translate(13.2 12)"></path>         <path fill="#4D3C3B" d="M24 5.987c1.2-.303 3.6-.303 4.8 0V7.2H24V5.987z" transform="translate(13.2 12)"></path>         <path fill="url(#osof1f6w1d)" d="M20.4 0h9.907c.447 0 .853.259 1.041.663l1.55 3.32c.134.287.01.629-.278.763-.076.036-.16.054-.243.054h-9.005c-.447 0-.853-.259-1.042-.663L20.4 0z" transform="translate(13.2 12)"></path>         <path fill="url(#o6a9k7r4ge)" d="M0 0h17.52c.43 0 .824.24 1.02.623l1.72 3.34c.145.282.034.628-.248.773-.081.042-.172.064-.263.064H3.171c-.43 0-.824-.24-1.021-.623L0 0z" transform="translate(13.2 12) matrix(-1 0 0 1 20.4 0)"></path>     </g> </svg>
