<svg width="90px" height="54px" viewBox="0 0 60 36" version="1.1" xmlns="http://www.w3.org/2000/svg" xmlns:xlink="http://www.w3.org/1999/xlink">     <title>Icon/Item/Bed/Single</title>     <defs>         <linearGradient x1="120.453547%" y1="53.8580247%" x2="0%" y2="46.1419753%" id="linearGradient-1">             <stop stop-color="#B67F39" offset="0%"></stop>             <stop stop-color="#985A2A" offset="100%"></stop>         </linearGradient>         <linearGradient x1="50%" y1="0%" x2="50%" y2="100%" id="linearGradient-2">             <stop stop-color="#F2F4F5" offset="0%"></stop>             <stop stop-color="#E1E5E8" offset="100%"></stop>         </linearGradient>         <linearGradient x1="49.370712%" y1="50%" x2="50%" y2="52.0290623%" id="linearGradient-3">             <stop stop-color="#FCDBD9" offset="0%"></stop>             <stop stop-color="#F5C9C9" offset="100%"></stop>         </linearGradient>         <linearGradient x1="48.1201758%" y1="-207.672776%" x2="48.1201758%" y2="100%" id="linearGradient-4">             <stop stop-color="#F1C4C1" offset="0%"></stop>             <stop stop-color="#DF928E" offset="100%"></stop>         </linearGradient>         <linearGradient x1="51.5127909%" y1="0%" x2="51.5127909%" y2="100%" id="linearGradient-5">             <stop stop-color="#B67F39" offset="0%"></stop>             <stop stop-color="#985A2A" offset="100%"></stop>         </linearGradient>     </defs>     <g id="Icon/Item/Bed/Single" stroke="none" stroke-width="1" fill="none" fill-rule="evenodd">         <g id="Group-2" transform="translate(18.000000, 13.200000)">             <g id="bed" transform="translate(1.000000, 2.400000)" fill-rule="nonzero">                 <path d="M21.7711538,6 L21.7711538,0.666666667 C21.7711538,0 20.9718655,0 20.1725771,0 L1.78894427,0 C0.916691646,0 0.190367509,0.077566946 0.190367509,0.666666667 L0.171153846,6 L21.7711538,6 Z" id="Shape" fill="url(#linearGradient-1)"></path>                 <path d="M1.4,13.8 C1.4,14.12985 1.535075,14.4 1.7,14.4 L3.5,14.4 C3.664925,14.4 3.8,14.12985 3.8,13.8 L3.8,12 L1.4,12 L1.4,13.8 Z" id="Shape" fill="#73371B"></path>                 <path d="M18.2,13.8 C18.2,14.12985 18.335075,14.4 18.5,14.4 L20.3,14.4 C20.464925,14.4 20.6,14.12985 20.6,13.8 L20.6,12 L18.2,12 L18.2,13.8 Z" id="Shape" fill="#73371B"></path>             </g>             <g id="Group" transform="translate(7.200000, 0.000000)" fill-rule="nonzero">                 <path d="M8.89182692,0 C8.75111376,0 8.62188588,0.0489791466 8.52029675,0.130858053 C8.19463359,0.393166947 7.82362212,0.592788462 7.40540986,0.592788462 L2.07927963,0.592788462 C1.66106737,0.592788462 1.29005589,0.393166947 0.964392728,0.130858053 C0.862729507,0.0489791466 0.733501623,0 0.592788462,0 C0.265421034,0 0,0.265421034 0,0.592788462 C0,0.733501623 0.0489791466,0.862729507 0.130858053,0.964392728 C0.393166947,1.29005589 0.592788462,1.66106737 0.592788462,2.07927963 L0.592788462,5.33509615 L8.89182692,5.33509615 L8.89182692,2.07920553 C8.89182692,1.66099327 9.09137434,1.28998179 9.35375733,0.96431863 C9.43563624,0.862655409 9.48461538,0.733427524 9.48461538,0.592714363 C9.48461538,0.265421034 9.21919435,0 8.89182692,0 Z" id="Shape" fill="url(#linearGradient-2)"></path>                 <path d="M8.89182692,0.592788462 C8.47361466,0.592788462 8.29903846,1.36015312 8.29903846,1.77836538 L8.29903846,3.55673077 C8.29903846,4.21153972 7.76827049,4.74230769 7.11346154,4.74230769 L1.18557692,4.74230769 C0.858209495,4.74230769 0.592788462,5.00772873 0.592788462,5.33509615 L8.89182692,5.33509615 L8.89182692,2.07927963 C8.89182692,1.66106737 9.09137434,1.29012999 9.35368323,0.964392728 C9.43556214,0.862729507 9.44882578,0.592788462 8.89182692,0.592788462 Z" id="Shape" fill="#D0D7DA"></path>             </g>             <path d="M2.79224986,5.33667531 C3.05374977,5.0098601 3.45941592,4.83096833 4.00924832,4.8 L20.0055771,4.8 C20.5550016,4.82234164 20.9580949,5.00123341 21.214857,5.33667531 C21.471619,5.67211721 21.6,6.32184292 21.6,7.28585245 L21.6,8.4 L2.4,8.4 L2.4,7.20126552 C2.4,6.28502059 2.53074995,5.66349052 2.79224986,5.33667531 Z" id="Rectangle" fill="url(#linearGradient-3)"></path>             <rect id="Rectangle-2" fill="url(#linearGradient-4)" x="2.4" y="7.2" width="19.2" height="1.2"></rect>             <path d="M23.25,8.4 L1.5,8.4 L0.75,8.4 C0.3358125,8.4 0,8.69845833 0,9.06666667 L0,13.7333333 C0,14.1015 0.3358125,14.4 0.75,14.4 L23.25,14.4 C23.6641875,14.4 24,14.1015 24,13.7333333 L24,9.06666667 C24,8.69845833 23.6641875,8.4 23.25,8.4 Z" id="Shape" fill="url(#linearGradient-5)" fill-rule="nonzero"></path>         </g>     </g> </svg>
