<svg width="90px" height="54px" viewBox="0 0 60 36" version="1.1" xmlns="http://www.w3.org/2000/svg" xmlns:xlink="http://www.w3.org/1999/xlink">     <title>Icon/Item/Couch/3 piece</title>     <defs>         <linearGradient x1="48.8923223%" y1="-26.9124112%" x2="48.8923223%" y2="102.618486%" id="linearGradient-1">             <stop stop-color="#94C4C7" offset="0%"></stop>             <stop stop-color="#5B9295" offset="100%"></stop>         </linearGradient>         <linearGradient x1="50%" y1="0%" x2="50%" y2="100%" id="linearGradient-2">             <stop stop-color="#C2DEDF" offset="0%"></stop>             <stop stop-color="#8FBABC" offset="100%"></stop>         </linearGradient>         <linearGradient x1="54.6405455%" y1="-46.0571585%" x2="54.6405455%" y2="100%" id="linearGradient-3">             <stop stop-color="#94C4C7" offset="0%"></stop>             <stop stop-color="#5B9295" offset="100%"></stop>         </linearGradient>         <linearGradient x1="45.3637626%" y1="39.420639%" x2="50%" y2="54.4164338%" id="linearGradient-4">             <stop stop-color="#738EA4" offset="0%"></stop>             <stop stop-color="#3F556B" offset="100%"></stop>         </linearGradient>     </defs>     <g id="Icon/Item/Couch/3-piece" stroke="none" stroke-width="1" fill="none" fill-rule="evenodd">         <g id="sofa" transform="translate(8.400000, 12.000000)" fill-rule="nonzero">             <rect id="Rectangle" fill="url(#linearGradient-1)" x="4.8" y="1.2" width="34.8" height="8.4"></rect>             <path d="M27.6,8.53333333 C27.6,5.29953736 27.6,2.87419038 27.6,1.25729239 C27.6,0.616984881 27.0257372,0 26.4262209,0 C24.4957564,0 21.6000595,0 17.7391304,0 C17.2204957,0 16.8,0.4776 16.8,1.06666667 C16.8,4.34723472 16.8,6.80766076 16.8,8.44794479 C16.8,9.04296063 17.3973775,9.6 18.0480265,9.6 C19.9619916,9.6 22.8329393,9.6 26.6608696,9.6 C27.179563,9.6 27.6,9.12246667 27.6,8.53333333 Z" id="Shape" fill="url(#linearGradient-2)"></path>             <circle id="Oval-2" fill="#5B9295" cx="19.8" cy="3" r="1"></circle>             <circle id="Oval-2" fill="#5B9295" cx="24.6" cy="3" r="1"></circle>             <circle id="Oval-2" fill="#5B9295" cx="24.6" cy="6.6" r="1"></circle>             <circle id="Oval-2" fill="#5B9295" cx="19.8" cy="6.6" r="1"></circle>             <rect id="Rectangle-Copy" fill="url(#linearGradient-3)" x="4.8" y="9.6" width="34.8" height="3.6"></rect>             <path d="M42.975,4.8 L41.0363011,4.8 C40.2492558,4.8 39.6113011,5.30737917 39.6113011,5.93333333 L39.6113011,12.0634392 C39.6113011,12.6893933 38.9733464,13.1967725 38.1863011,13.1967725 L7.125,13.1967725 C6.33795469,13.1967725 4.79746741,12.6893933 4.79746741,12.0634392 L4.79746741,5.93333333 C4.79746741,5.5350552 4.64160796,5.18478146 4.32549127,4.98266482 C4.1447829,4.86712467 3.91170492,4.8 3.62543579,4.8 L1.425,4.8 C0.637954688,4.8 0,5.30737917 0,5.93333333 L0,16.8624091 C0,17.4883633 0.637954687,17.9957425 1.425,17.9957425 L42.975,17.9957425 C43.7620453,17.9957425 44.4,17.4883633 44.4,16.8624091 L44.4,5.93333333 C44.4,5.30737917 43.7620453,4.8 42.975,4.8 Z" id="Shape" fill="url(#linearGradient-4)"></path>             <path d="M36.39798,18.663375 C36.5751,18.9585 37.044,19.2 37.44,19.2 L38.88,19.2 C39.276,19.2 39.6,18.93 39.6,18.6 L39.6,18 L36,18 L36.39798,18.663375 Z" id="Shape" fill="#35495C"></path>             <path d="M4.8,18 L4.8,18.6 C4.8,18.93 5.124,19.2 5.52,19.2 L6.96,19.2 C7.356,19.2 7.82481,18.9585 8.00202,18.663375 L8.4,18 L4.8,18 Z" id="Shape" fill="#35495C"></path>             <g id="Group" transform="translate(28.800000, 0.000000)">                 <path d="M9.86086957,0 C6.01380396,0 3.12850475,0 1.20497194,0 C0.600582718,0 0,0.60374668 0,1.20840996 L0,8.53333333 C0,9.12246667 0.420436957,9.6 0.939130435,9.6 L10.8,9.6 L10.8,1.06666667 C10.8,0.4776 10.3795043,0 9.86086957,0 Z" id="Shape" fill="url(#linearGradient-2)"></path>                 <circle id="Oval-2" fill="#5B9295" cx="3" cy="3" r="1"></circle>                 <circle id="Oval-2" fill="#5B9295" cx="7.8" cy="3" r="1"></circle>                 <circle id="Oval-2" fill="#5B9295" cx="7.8" cy="6.6" r="1"></circle>                 <circle id="Oval-2" fill="#5B9295" cx="3" cy="6.6" r="1"></circle>             </g>             <g id="Group-2" transform="translate(4.800000, 0.000000)">                 <path d="M10.8,8.53333333 C10.8,5.25325816 10.8,2.79320177 10.8,1.15316419 C10.8,0.615419183 10.1963441,0 9.60781282,0 C7.68143896,0 4.79187816,0 0.939130435,0 C0.420495652,0 0,0.4776 0,1.06666667 L0,9.6 L9.86086957,9.6 C10.379563,9.6 10.8,9.12246667 10.8,8.53333333 Z" id="Shape" fill="url(#linearGradient-2)"></path>                 <circle id="Oval-2" fill="#5B9295" cx="3" cy="3" r="1"></circle>                 <circle id="Oval-2" fill="#5B9295" cx="7.8" cy="3" r="1"></circle>                 <circle id="Oval-2" fill="#5B9295" cx="7.8" cy="6.6" r="1"></circle>                 <circle id="Oval-2" fill="#5B9295" cx="3" cy="6.6" r="1"></circle>             </g>             <path d="M39.6,9.6 L39.6,9.6 C38.7991469,9.6 38.15,10.0604786 38.15,10.6285714 L38.15,11.6572071 C38.15,11.9412214 37.8253812,12.1714929 37.425,12.1714929 L4.8,12.1714286 C4.8,12.7395214 5.44914687,13.2 6.25,13.2 L38.15,13.2 C38.9508531,13.2 39.6,12.7395214 39.6,12.1714286 L39.6,9.6 Z" id="Shape" fill="#407578"></path>         </g>     </g> </svg>
