<svg width="90px" height="54px" viewBox="0 0 60 36" version="1.1" xmlns="http://www.w3.org/2000/svg" xmlns:xlink="http://www.w3.org/1999/xlink">     <title>Icon/Item/Couch/2 piece</title>     <defs>         <linearGradient x1="48.8923223%" y1="-26.9124112%" x2="48.8923223%" y2="102.618486%" id="linearGradient-1">             <stop stop-color="#94C4C7" offset="0%"></stop>             <stop stop-color="#5B9295" offset="100%"></stop>         </linearGradient>         <linearGradient x1="54.6405455%" y1="-46.0571585%" x2="54.6405455%" y2="100%" id="linearGradient-2">             <stop stop-color="#94C4C7" offset="0%"></stop>             <stop stop-color="#5B9295" offset="100%"></stop>         </linearGradient>         <linearGradient x1="45.3637626%" y1="30.1328597%" x2="50%" y2="58.2936871%" id="linearGradient-3">             <stop stop-color="#738EA4" offset="0%"></stop>             <stop stop-color="#3F556B" offset="100%"></stop>         </linearGradient>         <linearGradient x1="50%" y1="0%" x2="50%" y2="100%" id="linearGradient-4">             <stop stop-color="#C2DEDF" offset="0%"></stop>             <stop stop-color="#8FBABC" offset="100%"></stop>         </linearGradient>     </defs>     <g id="Icon/Item/Couch/2-piece" stroke="none" stroke-width="1" fill="none" fill-rule="evenodd">         <g id="sofa" transform="translate(14.400000, 12.000000)" fill-rule="nonzero">             <rect id="Rectangle" fill="url(#linearGradient-1)" x="4.8" y="1.2" width="22.8" height="8.4"></rect>             <rect id="Rectangle-Copy" fill="url(#linearGradient-2)" x="4.8" y="9.6" width="22.8" height="3.6"></rect>             <path d="M30.975,4.8 L29.0363011,4.8 C28.2492558,4.8 27.6113011,5.30737917 27.6113011,5.93333333 L27.6113011,12.0634392 C27.6113011,12.6893933 26.9733464,13.1967725 26.1863011,13.1967725 L7.125,13.1967725 C6.33795469,13.1967725 4.79746741,12.6893933 4.79746741,12.0634392 L4.79746741,5.93333333 C4.79746741,5.5350552 4.64160796,5.18478146 4.32549127,4.98266482 C4.1447829,4.86712467 3.91170492,4.8 3.62543579,4.8 L1.425,4.8 C0.637954687,4.8 0,5.30737917 0,5.93333333 L0,16.8624091 C0,17.4883633 0.637954687,17.9957425 1.425,17.9957425 L30.975,17.9957425 C31.7620453,17.9957425 32.4,17.4883633 32.4,16.8624091 L32.4,5.93333333 C32.4,5.30737917 31.7620453,4.8 30.975,4.8 Z" id="Shape" fill="url(#linearGradient-3)"></path>             <path d="M24.39798,18.663375 C24.5751,18.9585 25.044,19.2 25.44,19.2 L26.88,19.2 C27.276,19.2 27.6,18.93 27.6,18.6 L27.6,18 L24,18 L24.39798,18.663375 Z" id="Shape" fill="#35495C"></path>             <path d="M4.8,18 L4.8,18.6 C4.8,18.93 5.124,19.2 5.52,19.2 L6.96,19.2 C7.356,19.2 7.82481,18.9585 8.00202,18.663375 L8.4,18 L4.8,18 Z" id="Shape" fill="#35495C"></path>             <g id="Group" transform="translate(16.800000, 0.000000)">                 <path d="M9.86086957,0 C6.01380396,0 3.12850475,0 1.20497194,0 C0.600582718,0 0,0.60374668 0,1.20840996 L0,8.53333333 C0,9.12246667 0.420436957,9.6 0.939130435,9.6 L10.8,9.6 L10.8,1.06666667 C10.8,0.4776 10.3795043,0 9.86086957,0 Z" id="Shape" fill="url(#linearGradient-4)"></path>                 <circle id="Oval-2" fill="#5B9295" cx="3" cy="3" r="1"></circle>                 <circle id="Oval-2" fill="#5B9295" cx="7.8" cy="3" r="1"></circle>                 <circle id="Oval-2" fill="#5B9295" cx="7.8" cy="6.6" r="1"></circle>                 <circle id="Oval-2" fill="#5B9295" cx="3" cy="6.6" r="1"></circle>             </g>             <g id="Group-2" transform="translate(4.800000, 0.000000)">                 <path d="M10.8,8.53333333 C10.8,5.25325816 10.8,2.79320177 10.8,1.15316419 C10.8,0.615419183 10.1963441,0 9.60781282,0 C7.68143896,0 4.79187816,0 0.939130435,0 C0.420495652,0 0,0.4776 0,1.06666667 L0,9.6 L9.86086957,9.6 C10.379563,9.6 10.8,9.12246667 10.8,8.53333333 Z" id="Shape" fill="url(#linearGradient-4)"></path>                 <circle id="Oval-2" fill="#5B9295" cx="3" cy="3" r="1"></circle>                 <circle id="Oval-2" fill="#5B9295" cx="7.8" cy="3" r="1"></circle>                 <circle id="Oval-2" fill="#5B9295" cx="7.8" cy="6.6" r="1"></circle>                 <circle id="Oval-2" fill="#5B9295" cx="3" cy="6.6" r="1"></circle>             </g>             <path d="M27.6,9.6 L27.6,9.6 C27.0753031,9.6 26.65,10.0604786 26.65,10.6285714 L26.65,11.6572071 C26.65,11.9412214 26.4373188,12.1714929 26.175,12.1714929 L4.8,12.1714286 C4.8,12.7395214 5.22530312,13.2 5.75,13.2 L26.65,13.2 C27.1746969,13.2 27.6,12.7395214 27.6,12.1714286 L27.6,9.6 Z" id="Shape" fill="#407578"></path>         </g>     </g> </svg>
